# xmcd
#
# Track frame offsets:
#       150
#       13265
#       23500
#       38280
#       51140
#       62185
#       70405
#       86262
#       97402
#       110052
#       120047
#       132742
#       146325
#       162637
#       175890
#       187270
#
# Disc length: 2654 seconds
#
# Revision: 4
# Processed by: cddbd v1.5.2PL0 Copyright (c) Steve Scherf et al.
# Submitted via: FreeDbEdit v0.1
#
DISCID=e20a5c10
DTITLE=Slim Whitman - The Best of Slim Whitman (Pegasus)
DYEAR=1998
DGENRE=Country
TTITLE0=Red Sails in the Sun Set
TTITLE1=Any Time
TTITLE2=Mocking Bird Hill
TTITLE3=Release Me
TTITLE4=The Wayward Wind
TTITLE5=Have You Ever Been Lonely
TTITLE6=Down in the Valley
TTITLE7=Singin' the Blues
TTITLE8=Half as Much
TTITLE9=Cara Mia
TTITLE10=Tennessee Waltz
TTITLE11=You Are My Sunshine
TTITLE12=The Three Bells
TTITLE13=Till I Waltz Again With You
TTITLE14=It Is a Secret
TTITLE15=Now Is the Hour
EXTD=\n YEAR: 1998
EXTT0=
EXTT1=
EXTT2=
EXTT3=
EXTT4=
EXTT5=
EXTT6=
EXTT7=
EXTT8=
EXTT9=
EXTT10=
EXTT11=
EXTT12=
EXTT13=
EXTT14=
EXTT15=
PLAYORDER=
